:SAMPLES-PER-SECOND 30
:FULLY-SPECIFIED
:DEGREES
487
root  -18.0572 39.8129 -10.0356 -3.14775 -77.2717 -2.40227
RightUpLeg  -9.79991 -16.1999 -7.63764
RightLeg  19.3054 1.1045 1.18804
RightFoot  -3.62469 -0.350917 4.8443
RightToes  0.00048216 0.542163 -0.142577
Spine  18.7084 -1.67585 11.1562
Spine1  9.05768 1.13481 -2.49593
HEad  -8.54357 30.5464 -16.7526
LeftShoulder1  4.90176 -7.87917 -36.9172
LeftArm  -20.9538 25.3729 -18.9074
LeftForeArm  20.7143 -14.5865 -1.7154
LeftHand  -0.25398 0.0180481 5.50724
RightShoulder  4.29118 8.01355 31.3114
RightArm  -11.6573 -25.0749 35.7546
RightForeArm  -15.2087 15.1849 6.54499
RightHand  -2.45013 6.12108 -24.7194
LeftUpLeg  2.83703 2.51442 10.3935
LeftLeg  32.0932 6.10278 4.46085
LeftFoot  -8.54177 0.171989 -4.85336
LeftToes  1.06246e-005 4.65855e-005 -8.185e-006
488
root  -17.0731 39.6406 -9.50509 -0.81131 -78.0349 -4.73434
RightUpLeg  -11.2346 -15.6539 -7.73933
RightLeg  18.6303 1.44016 1.12856
RightFoot  -2.19378 -0.472352 5.71404
RightToes  0.00048216 0.542163 -0.142577
Spine  18.7504 -1.87251 10.1003
Spine1  7.99949 0.417854 -1.54151
HEad  -8.31328 31.0627 -15.9105
LeftShoulder1  4.33059 -7.10674 -34.7167
LeftArm  -20.2272 25.9132 -18.5782
LeftForeArm  21.3918 -13.8887 -1.62826
LeftHand  -0.25398 0.0180481 5.50724
RightShoulder  4.01162 7.57492 30.2482
RightArm  -15.1072 -25.2024 33.9147
RightForeArm  -16.2482 14.5938 6.18697
RightHand  -2.96261 7.70312 -26.2354
LeftUpLeg  6.95717 1.9515 11.5906
LeftLeg  28.4164 4.80827 3.16943
LeftFoot  -9.43082 0.210709 -9.95759
LeftToes  1.06246e-005 4.65855e-005 -8.185e-006
489
root  -16.0554 39.5089 -8.90842 0.344315 -78.4052 -5.87657
RightUpLeg  -12.08 -15.2022 -8.47377
RightLeg  17.0023 1.37088 1.12867
RightFoot  -0.383884 -0.7124 7.35476
RightToes  0.00048216 0.542163 -0.142577
Spine  18.9951 -1.99154 8.85649
Spine1  6.78271 -0.242539 -0.707183
HEad  -7.9515 30.8764 -14.8985
LeftShoulder1  3.86722 -6.49023 -32.6111
LeftArm  -19.7937 26.1778 -18.0605
LeftForeArm  21.5328 -13.4127 -1.56887
LeftHand  -0.25398 0.0180481 5.50724
RightShoulder  3.64544 6.97828 28.7866
RightArm  -18.0667 -24.99 31.6524
RightForeArm  -18.2091 14.0235 5.81993
RightHand  -3.42351 8.93201 -27.6645
LeftUpLeg  10.4605 2.50314 11.9936
LeftLeg  23.4697 2.18777 1.3884
LeftFoot  -12.3865 -0.0539177 -14.3639
LeftToes  1.06246e-005 4.65855e-005 -8.185e-006
490
root  -14.99 39.43 -8.26385 -0.808167 -78.6176 -4.515
RightUpLeg  -12.4978 -15.1952 -9.93698
RightLeg  14.3622 1.2763 1.29285
RightFoot  1.79778 -1.13111 9.90127
RightToes  0.00048216 0.542163 -0.142577
Spine  19.1943 -1.81303 7.22215
Spine1  5.81151 -0.638825 -0.148624
HEad  -7.78356 29.8831 -13.8293
LeftShoulder1  3.50318 -6.02244 -30.6787
LeftArm  -19.9014 25.7393 -17.4963
LeftForeArm  21.2596 -13.2016 -1.49198
LeftHand  -0.25398 0.0180481 5.50724
RightShoulder  3.25668 6.29255 27.2092
RightArm  -20.1048 -24.2385 28.7495
RightForeArm  -20.121 13.2155 5.47935
RightHand  -3.68282 9.58678 -28.4185
LeftUpLeg  12.4064 5.26857 11.5125
LeftLeg  18.6935 -0.565054 0.101391
LeftFoot  -16.0199 -0.461871 -13.8786
LeftToes  1.06246e-005 4.65855e-005 -8.185e-006
491
root  -13.8653 39.3843 -7.61164 -4.4465 -78.8521 -0.303146
RightUpLeg  -12.922 -14.8818 -11.9936
RightLeg  11.1337 0.994338 1.62857
RightFoot  2.99556 -1.45878 11.7489
RightToes  0.00048216 0.542163 -0.142577
Spine  19.0996 -1.28324 5.01421
Spine1  5.32547 -0.73992 0.423016
HEad  -7.9552 28.4187 -12.7365
LeftShoulder1  3.22752 -5.70969 -28.9044
LeftArm  -20.3591 24.6971 -16.7789
LeftForeArm  21.155 -13.2216 -1.40002
LeftHand  -0.25398 0.0180481 5.50724
RightShoulder  2.90079 5.64348 25.6177
RightArm  -21.4687 -23.0526 25.4917
RightForeArm  -21.6085 12.1212 5.11207
RightHand  -3.85086 10.0913 -28.7291
LeftUpLeg  12.2317 8.78324 9.94478
LeftLeg  15.884 -1.75664 -0.537233
LeftFoot  -18.5883 -0.536875 -10.1701
LeftToes  1.06246e-005 4.65855e-005 -8.185e-006
492
root  -12.7291 39.4151 -6.98617 -8.79057 -79.0836 4.84975
RightUpLeg  -13.1279 -13.8231 -14.077
RightLeg  7.2064 -0.117456 1.91542
RightFoot  2.16103 -1.37148 11.6555
RightToes  0.00048216 0.542163 -0.142577
Spine  18.7071 -0.698385 2.85055
Spine1  5.26087 -0.665993 1.09368
HEad  -8.11955 26.8549 -11.4167
LeftShoulder1  2.98069 -5.45494 -27.0944
LeftArm  -20.8907 23.44 -15.7618
LeftForeArm  21.3182 -13.3617 -1.30703
LeftHand  -0.25398 0.0180481 5.50724
RightShoulder  2.57366 5.04874 23.917
RightArm  -22.6515 -21.7983 22.6929
RightForeArm  -23.0508 10.9433 4.68815
RightHand  -4.1242 10.8879 -29.2343
LeftUpLeg  10.3889 9.99262 7.40847
LeftLeg  15.2448 -0.609922 -0.920304
LeftFoot  -19.3953 -0.415315 -7.50091
LeftToes  1.06246e-005 4.65855e-005 -8.185e-006
493
root  -11.6929 39.5542 -6.41348 -11.9903 -79.4816 8.72986
RightUpLeg  -12.7384 -13.2762 -15.3892
RightLeg  3.04224 -2.16816 2.12213
RightFoot  0.116545 -1.06707 10.6157
RightToes  0.00048216 0.542163 -0.142577
Spine  18.1236 -0.285504 1.65845
Spine1  5.36857 -0.38225 0.972346
HEad  -7.67941 25.3068 -9.81712
LeftShoulder1  2.7169 -5.1667 -25.0837
LeftArm  -21.4538 22.2167 -14.4814
LeftForeArm  21.3607 -13.5395 -1.21163
LeftHand  -0.25398 0.0180481 5.50724
RightShoulder  2.25079 4.40933 22.1713
RightArm  -23.6738 -20.788 20.7203
RightForeArm  -24.5863 9.88755 4.27231
RightHand  -4.4731 11.8041 -29.9795
LeftUpLeg  8.24032 10.4829 5.16543
LeftLeg  15.4727 -0.00957481 -1.05611
LeftFoot  -18.7429 -0.331909 -6.86482
LeftToes  1.06246e-005 4.65855e-005 -8.185e-006
